<svg width="56" height="56" viewBox="0 0 56 56" fill="none" xmlns="http://www.w3.org/2000/svg">
<g clip-path="url(#clip0_143_12)">
<path fill-rule="evenodd" clip-rule="evenodd" d="M44.0789 5.71078C44.2592 5.76174 46.5117 8.62896 45.6985 8.62896C45.1394 8.62896 43.9156 5.98668 43.9489 5.91437C44.0134 5.77432 44.1896 5.74208 44.0789 5.71078V5.71078Z" fill="#FF9737"/>
<path fill-rule="evenodd" clip-rule="evenodd" d="M37.6591 7.61095C37.0613 7.58899 36.0526 7.12516 35.496 6.90299C34.8718 6.65386 34.2992 6.20141 33.7915 5.84651C34.7356 5.68036 35.6949 5.85151 36.2253 6.2157C36.6699 6.52102 37.424 7.21024 37.6591 7.61095V7.61095ZM32.7079 0.331271C34.3707 0.730669 36.5641 1.16027 37.8429 1.95099C38.4835 2.34712 38.5389 2.15802 39.1519 2.36214C39.6446 2.52618 39.4997 2.9502 41.2102 3.78973C41.76 4.05956 41.8469 4.28765 42.2486 4.50003C42.1358 3.79971 41.2202 2.85595 40.7185 2.46938C39.0098 1.15289 36.7141 0.478093 34.4951 0.0723131C34.1851 0.0156004 33.9838 -0.0140796 33.6194 0.00657249C32.8272 0.0514743 32.8148 0.221324 32.7079 0.331271V0.331271ZM19.781 17.3109C20.7293 16.4835 20.1421 15.0387 23.7284 14.5538C26.0857 14.235 26.7452 13.1553 29.2691 13.0815C30.6204 13.6989 32.1309 14.5071 33.4447 14.581C35.4815 14.6954 35.7541 14.8083 36.7493 15.7916C36.9753 16.0149 37.2572 16.5568 37.5752 17.4327C39.7767 17.1954 41.7629 16.8964 43.5314 16.5277C44.4385 16.3386 45.2883 16.1311 46.0882 15.9176C45.3395 14.6043 43.7358 12.0128 43.4074 11.5126C42.8819 10.7122 42.291 10.2622 41.5762 9.69427C40.9352 9.18506 39.711 8.73575 39.3709 8.26162C42.1375 8.05774 41.8076 9.52499 43.929 11.668C44.5228 12.2679 45.2861 12.8528 46.2088 13.3515C47.0292 13.7949 47.2642 14.642 47.5821 15.498C48.1903 15.3197 48.7677 15.1426 49.3185 14.9735C48.6907 12.5334 46.9391 11.2552 45.0013 9.98611C43.1051 8.74434 43.5599 7.80759 41.0729 6.54087C40.2278 6.11049 38.4552 5.67567 37.5844 5.08289C35.65 3.76604 35.0594 3.27117 32.1924 3.13772C28.5299 2.96726 28.0078 1.59869 23.2622 2.95613C17.7952 4.51995 15.3619 4.48109 11.3569 7.59881C10.411 8.33513 9.43975 9.21625 8.48862 9.97338C3.47862 13.9616 4.13252 13.9286 2.25442 18.5321C2.1821 18.7093 1.989 19.1708 1.77694 19.6991C2.87283 19.4674 4.02056 19.2705 5.21634 19.1052C5.78514 17.3485 5.97236 15.4587 7.44324 13.9113C8.47716 12.8235 9.50353 12.2554 10.7503 11.4226C13.6428 9.49041 15.0351 7.39238 17.4892 6.45253C19.2128 5.79241 20.8847 5.78805 22.9473 5.52995C26.8015 5.04768 28.3441 3.40674 31.6173 5.25413C31.9716 5.45408 32.2799 5.54636 32.5175 5.7862C30.2734 6.14511 30.0131 4.95724 28.35 5.45644C27.5622 5.69293 26.8869 5.87435 26.029 5.87687C24.9935 5.87987 24.7952 5.79589 23.7438 6.23114L20.3031 7.99234C17.1832 9.61184 16.9105 8.72893 13.8167 11.8226C12.3088 13.3304 9.56492 15.4777 8.84076 16.693C8.66149 16.9939 8.25645 17.9669 7.96987 18.7866C9.39461 18.6506 10.8699 18.5494 12.3716 18.472C12.6646 18.1311 13.0943 17.8033 13.7596 17.3489C18.1469 14.3527 17.1496 11.9467 21.9474 11.1849C22.4094 11.1115 22.6093 11.0033 22.9395 10.9035C23.3227 10.7878 23.5701 10.7586 23.9719 10.612C26.1606 9.81336 27.5025 8.69249 29.5556 8.9131C31.5922 9.13194 33.3987 10.4779 34.6727 10.3585C35.7666 10.256 35.5894 10.2296 36.1159 10.6597C36.4546 10.9365 36.1382 10.7411 36.4443 10.8771C36.4783 11.2359 36.6531 11.4126 36.9059 11.6474C37.8839 12.5562 39.0488 11.4819 39.4154 13.1764L36.0089 12.1363C34.8662 11.6945 34.4015 10.8784 32.9319 10.7076C31.7799 10.5738 30.5225 10.7955 28.8383 10.4547C26.7508 10.0321 26.5222 10.3741 24.7651 11.0427C23.7061 11.4456 21.6544 11.7885 20.8214 12.2979C20.3177 12.606 19.5225 13.7379 18.3166 14.5124C15.3463 16.4201 16.3926 16.2708 15.1349 18.3026C15.1251 18.3183 15.1133 18.3362 15.0999 18.3557C16.4868 18.3076 17.8834 18.2737 19.2715 18.2455C19.5075 17.9515 19.7535 17.6301 19.781 17.3109V17.3109ZM22.5069 16.9138C21.9577 17.1041 21.0595 17.6449 20.3817 18.224C22.7583 18.1799 25.0953 18.1464 27.2995 18.081C30.3187 17.9916 33.0889 17.8424 35.6076 17.6235C35.1382 17.0803 34.3795 16.1536 34.2297 15.9701C33.8504 15.5051 33.8507 15.2811 33.0725 15.2411C32.7415 15.0209 32.1624 15.1678 31.6403 15.1079C31.2213 15.0598 30.7263 14.8584 30.4349 14.7274C28.8379 14.0093 29.1875 14.403 27.5462 14.7873C26.2041 15.1015 25.6029 14.6571 24.5234 15.4602C24.0918 15.7814 23.1971 16.7054 22.5069 16.9138V16.9138ZM4.75895 9.23751C6.63729 8.54934 7.05869 7.26872 8.74019 6.41236C10.7705 5.37836 11.9532 4.04899 12.7746 3.73417C13.4623 3.47056 14.0199 3.74338 15.7952 3.07049C16.4734 2.81344 17.5893 2.30111 18.1215 1.92374C19.2181 1.14605 22.806 1.19353 24.5018 0.857382C24.1241 -0.0604238 19.8023 0.30417 18.3769 0.695559C17.1939 1.02039 16.8938 1.45724 15.9282 1.94074C13.6426 3.08516 11.5393 2.4683 10.3521 4.07463C8.91785 6.01515 8.52003 4.6335 6.3264 7.16935C5.84607 7.72463 4.86304 8.52699 4.75895 9.23751V9.23751Z" fill="#FF9737"/>
<path fill-rule="evenodd" clip-rule="evenodd" d="M9.31144 40.1285C10.382 43.999 18.1967 48.8244 21.164 49.1535C23.2692 46.0195 23.1938 46.3088 18.8951 44.1541C15.6868 42.5459 14.899 40.881 14.5017 38.3985C12.6915 38.8875 10.8344 39.4628 9.74328 39.9499C9.62351 40.0033 9.48218 40.0603 9.32257 40.1201C9.31892 40.1229 9.31506 40.1257 9.31144 40.1285V40.1285ZM36.373 35.7862C37.1944 36.6791 40.0095 38.4543 41.0815 38.962L45.193 40.5796L46.1337 38.8128C45.1798 38.4041 44.3542 37.9936 43.4879 37.4851C42.3973 36.8448 41.4538 35.8814 40.611 35.2586C40.4021 35.2931 40.1956 35.324 39.9928 35.3506C38.7409 35.5514 37.5415 35.6882 36.373 35.7862V35.7862ZM32.4339 36.0075C33.0827 38.8732 38.6104 40.4233 39.739 41.0186C42.95 42.7122 40.5463 44.1258 39.172 46.6179C40.551 45.9533 43.822 42.9146 44.5304 41.3874C44.5049 41.3505 41.3744 40.0397 38.9293 38.5248C37.3406 37.5405 36.2582 36.3484 35.6527 35.8422C34.5621 35.9204 33.4951 35.9686 32.4339 36.0075ZM41.4058 35.112C42.3251 36.016 45.5241 37.9014 46.5986 38.0446C46.8915 37.2269 47.2345 36.4819 47.4773 35.6636C47.6588 35.1245 47.8098 34.0173 47.8925 33.3212C46.1357 33.941 44.2448 34.4916 42.284 34.9175C41.9903 34.9878 41.6968 35.053 41.4058 35.112ZM33.631 49.1864C34.7221 48.9932 35.8246 48.5221 36.6663 48.1332C37.7733 47.6219 37.943 47.1195 38.6081 46.1923C39.9056 44.3834 41.2882 42.8387 39.4682 41.7861C38.5488 41.2545 35.3011 39.9805 33.4622 38.5474C32.2132 37.5741 31.8374 36.4429 31.6655 36.0344C30.5457 36.0721 29.4274 36.1052 28.2896 36.1583C28.881 37.1092 30.0926 39.0616 31.2912 39.8841C33.1703 41.1735 35.5068 41.7313 36.2621 42.3956C38.5944 44.4467 35.4459 46.0367 33.631 49.1864ZM15.1473 38.2092C15.6002 40.6547 18.3401 43.0138 20.3734 43.9309C25.2433 46.1274 23.1817 47.1486 21.8962 49.4001C22.604 49.5976 23.7214 49.8373 24.5544 49.8237C25.0472 48.8904 26.5514 47.2216 26.8807 46.2518C27.6352 44.03 22.2637 43.6567 19.8814 40.8658C19.5289 40.4529 18.9416 38.3236 18.5616 37.407C17.3883 37.6582 16.2549 37.9273 15.1473 38.2092V38.2092ZM19.4679 37.2184C19.8281 38.242 20.1594 40.2054 21.0397 40.9138C22.6279 42.124 24.2522 42.6698 26.0196 43.6045C30.3264 45.8819 25.6408 48.2059 25.2676 49.9938C26.2148 50.0173 27.1927 50.1441 28.1441 49.9621C29.0585 48.9405 29.9384 47.6018 30.6841 46.4699C32.6877 43.4289 29.7527 43.6098 26.4377 41.6067C24.0905 40.2892 23.2763 37.8134 23.0077 36.6032C22.2681 36.7066 21.5103 36.8285 20.7294 36.9735C20.3031 37.0526 19.883 37.1344 19.4679 37.2184V37.2184ZM32.3087 49.5565C33.0373 49.2977 36.5754 44.4268 36.121 43.4813C35.6518 42.505 32.0903 41.329 30.3493 40.1635C29.6738 39.7112 27.609 37.4958 27.0268 36.226C26.0088 36.2886 24.9694 36.374 23.8944 36.4986C25.2819 40.642 28.7204 41.5858 31.2668 43.1787C34.1138 44.9596 30.0504 47.9693 28.9305 50.0046C29.6716 49.9464 31.7222 49.7648 32.3087 49.5565V49.5565Z" fill="#F24141"/>
<path fill-rule="evenodd" clip-rule="evenodd" d="M1.35259 37.5765C1.28346 37.485 1.21168 37.3833 1.13726 37.2714C1.02028 37.0831 0.91924 36.8254 0.834138 36.4983C0.802226 36.3757 0.854005 36.2264 0.989507 36.0506C1.12499 35.8749 1.28174 35.7373 1.45977 35.6379C1.6378 35.5385 1.81186 35.4891 1.98193 35.4897C2.152 35.4904 2.26365 35.5929 2.31685 35.7973L2.35673 35.9506C2.52163 36.4972 2.84459 36.9112 3.32566 37.1928C3.80672 37.4744 4.37143 37.5551 5.01984 37.4351C5.73729 37.3193 6.32986 37.0499 6.79747 36.6269C7.26509 36.2039 7.62108 35.722 7.86545 35.1811C8.1098 34.6401 8.26115 34.09 8.31949 33.5307C8.37784 32.9713 8.35647 32.4975 8.25541 32.1091C8.13306 31.639 7.93234 31.2594 7.65325 30.9704C7.37414 30.6814 7.10705 30.5255 6.85193 30.5028C6.75094 30.5501 6.65795 30.5845 6.57291 30.6059C6.48788 30.6274 6.40285 30.6488 6.31781 30.6703C5.61626 30.8474 5.22828 30.7928 5.1538 30.5066C5.12722 30.4044 5.16971 30.263 5.2813 30.0823C5.39285 29.9017 5.59745 29.7738 5.89506 29.6987C6.00135 29.6719 6.10898 29.6501 6.21793 29.6335C6.32688 29.6169 6.43715 29.6054 6.54877 29.599C6.6019 29.5421 6.77858 29.3504 7.07879 29.0241C7.37902 28.6978 7.67522 28.2909 7.96743 27.8032C8.25965 27.3156 8.50136 26.7644 8.69256 26.1498C8.88375 25.5351 8.89691 24.911 8.73202 24.2773C8.4873 23.337 7.79099 23.0117 6.64304 23.3015C6.23914 23.4034 5.80203 23.639 5.33176 24.0082C4.86149 24.3774 4.42308 24.8257 4.01661 25.3531C3.61015 25.8805 3.26214 26.4585 2.97261 27.087C2.6831 27.7156 2.52511 28.3273 2.49868 28.9222C2.51465 29.0706 2.5014 29.1938 2.4589 29.2916C2.38987 29.5487 2.29157 29.6933 2.16401 29.7255C2.12152 29.7362 2.00723 29.6888 1.82119 29.5833C1.63513 29.4778 1.42515 29.3238 1.19126 29.1214C0.957372 28.9191 0.730098 28.6769 0.509475 28.3949C0.288853 28.113 0.135964 27.8085 0.0508614 27.4814C-0.00767156 27.2565 -0.0156666 27.0516 0.02679 26.8666C0.0480527 26.8613 0.146354 26.6731 0.32166 26.3021C0.496949 25.931 0.814426 25.4969 1.27406 24.9997C1.73369 24.5025 2.35408 23.9919 3.13527 23.468C3.91643 22.9441 4.9235 22.5265 6.1565 22.2153C6.51788 22.124 6.9537 22.0576 7.4639 22.016C7.97414 21.9743 8.4817 22.0096 8.98665 22.1218C9.49158 22.2339 9.95271 22.4606 10.37 22.8019C10.7873 23.1432 11.0837 23.651 11.2592 24.3256C11.3018 24.4891 11.3364 24.6656 11.363 24.8549C11.3896 25.0443 11.4003 25.2594 11.395 25.5004C11.3739 26.0285 11.2465 26.5399 11.0127 27.0346C10.8109 27.4776 10.4854 27.9465 10.0364 28.441C9.5874 28.9355 8.94308 29.3977 8.10342 29.8275C8.12468 29.8221 8.27483 29.8333 8.55387 29.8608C8.8329 29.8884 9.14519 29.9784 9.49069 30.1309C9.83618 30.2833 10.1737 30.5139 10.5033 30.8229C10.8329 31.1318 11.0722 31.5724 11.2211 32.1448C11.4179 32.9011 11.4274 33.6339 11.2495 34.3433C11.0716 35.0526 10.7489 35.7058 10.2813 36.3031C9.81371 36.9004 9.21856 37.4209 8.49583 37.8647C7.77312 38.3086 6.97596 38.6405 6.10437 38.8605C5.76424 38.9463 5.38954 39.0082 4.98031 39.0461C4.5711 39.0841 4.15785 39.0631 3.74061 38.9833C3.32336 38.9034 2.90479 38.7531 2.48486 38.5324C2.06493 38.3116 1.68751 37.9929 1.35259 37.5765V37.5765ZM2.42033 35.1504C2.3725 35.1406 2.33926 35.0782 2.32064 34.9631C2.30203 34.848 2.28604 34.6996 2.2727 34.5177C2.25938 34.336 2.26066 34.145 2.27656 33.9449C2.29246 33.7449 2.31102 33.555 2.33225 33.3754C2.36935 32.9086 2.43967 32.3735 2.54317 31.7701C2.64666 31.1667 2.77275 30.563 2.92144 29.9591C3.07012 29.3552 3.24272 28.7779 3.43926 28.2273C3.63579 27.6766 3.84297 27.2104 4.06081 26.8287C4.06081 26.8287 4.07009 26.7991 4.08867 26.74C4.10728 26.6808 4.1564 26.6085 4.23611 26.5231C4.31582 26.4376 4.44467 26.3452 4.62272 26.2457C4.80075 26.1464 5.04918 26.0564 5.36805 25.9759C5.43184 25.9598 5.49961 25.9591 5.57138 25.9736C5.64312 25.9882 5.69495 26.0568 5.72687 26.1795C5.75347 26.2817 5.71896 26.4538 5.62333 26.6957C5.52771 26.9377 5.41485 27.3093 5.28476 27.8105C5.15467 28.3117 5.02194 28.9769 4.88659 29.8062C4.75124 30.6354 4.64651 31.6912 4.57237 32.9734C4.57771 33.081 4.58174 33.2705 4.58447 33.5422C4.58719 33.8138 4.58061 34.0932 4.56472 34.3804C4.54883 34.6676 4.51435 34.9268 4.46127 35.158C4.40816 35.3893 4.32845 35.5183 4.22217 35.5451C4.0521 35.5881 3.79301 35.5936 3.44486 35.5616C3.09674 35.5297 2.81104 35.433 2.58778 35.2715L2.42033 35.1504V35.1504ZM14.01 30.8535C13.9981 30.8994 14.0047 30.9521 14.0298 31.0113C14.0548 31.0707 14.0614 31.1233 14.0496 31.1692C14.0284 31.3688 14.0191 31.6199 14.0218 31.9223C14.0245 32.2248 14.051 32.5327 14.1013 32.846C14.1516 33.1594 14.2274 33.4616 14.3288 33.7527C14.4301 34.0437 14.5689 34.2777 14.745 34.4544C14.8069 34.5271 14.8201 34.6324 14.7846 34.7702C14.7562 34.8416 14.711 34.8896 14.6492 34.9144C14.5874 34.9391 14.5351 34.9563 14.4924 34.9659C14.402 34.9646 14.273 34.9666 14.1054 34.9719C13.9378 34.9772 13.7589 34.958 13.5686 34.9143C13.3784 34.8705 13.1809 34.796 12.9764 34.6905C12.7718 34.5851 12.598 34.4186 12.4551 34.191C12.3432 33.9998 12.2454 33.7728 12.162 33.5102C12.0784 33.2476 12.0151 32.9751 11.972 32.6925C11.9289 32.41 11.9042 32.1342 11.898 31.865C11.8918 31.5958 11.8885 31.3638 11.8883 31.169C11.8906 31.0819 11.8998 30.8309 11.916 30.416C11.9322 30.0011 11.9626 29.5017 12.0071 28.9181C12.0516 28.3344 12.1122 27.6984 12.1887 27.0101C12.2652 26.3218 12.3703 25.6596 12.5039 25.0233C12.6376 24.3871 12.7933 23.8217 12.971 23.3271C13.1488 22.8324 13.3683 22.4691 13.6296 22.2371C13.6248 22.2165 13.6605 22.176 13.7365 22.1156C13.8173 22.0757 13.9087 22.0335 14.0109 21.9888C14.1131 21.9441 14.2498 21.9025 14.4209 21.8639C14.4637 21.8543 14.5237 21.8462 14.601 21.8396C14.6783 21.833 14.7728 21.828 14.8845 21.8245C14.9797 21.8463 15.1711 21.8952 15.4589 21.9711C15.7466 22.047 15.9501 22.2446 16.0694 22.5641C16.0885 22.6464 16.0648 22.7383 15.9983 22.8399C15.9817 22.8653 15.9609 22.897 15.936 22.9351C15.9111 22.9732 15.882 23.0176 15.8488 23.0684C15.7562 23.1542 15.6186 23.4342 15.436 23.9082C15.2534 24.3823 15.0639 24.9716 14.8673 25.6761C14.6708 26.3806 14.488 27.1686 14.3189 28.0401C14.1499 28.9116 14.0564 29.7931 14.0383 30.6847C14.0265 30.7307 14.0218 30.7588 14.0241 30.7691C14.0265 30.7794 14.0218 30.8075 14.01 30.8535V30.8535ZM19.569 23.2973C19.7482 23.4962 19.7472 23.7179 19.5658 23.9624C19.3845 24.2069 19.1376 24.4602 18.8254 24.7223C18.5131 24.9843 18.1986 25.236 17.8817 25.4775C17.5649 25.7189 17.3797 25.9211 17.3262 26.0839C17.2925 26.1344 17.2542 26.1643 17.2114 26.1736C17.1685 26.1829 17.087 26.1951 16.9668 26.2103C16.8466 26.2255 16.6916 26.2105 16.5017 26.1652C16.3118 26.1198 16.1579 26.0344 16.04 25.9086C15.9267 25.8035 15.8397 25.6657 15.7792 25.4952C15.7187 25.3246 15.7419 25.0765 15.849 24.7509C15.9683 24.3793 16.1936 24.0551 16.525 23.7781C16.8564 23.5011 17.2146 23.2939 17.5996 23.1565C17.9846 23.0192 18.359 22.9597 18.7226 22.9782C19.0863 22.9967 19.3684 23.1031 19.569 23.2973V23.2973ZM17.246 26.7818C17.367 26.8205 17.5125 26.9186 17.6825 27.0763C17.8525 27.2339 17.8901 27.4526 17.7952 27.7324C17.7249 27.9205 17.653 28.1521 17.5796 28.4273C17.5062 28.7024 17.4374 28.9982 17.3732 29.3146C17.3243 29.498 17.2872 29.6843 17.262 29.8734C17.2368 30.0625 17.2105 30.2465 17.1829 30.4253C17.1066 31.09 17.134 31.716 17.2651 32.3034C17.3962 32.8908 17.6402 33.3295 17.9971 33.6195C18.0537 33.6721 18.1073 33.7361 18.1579 33.8116C18.2084 33.887 18.1847 33.957 18.0867 34.0214C17.9673 34.0905 17.8223 34.1705 17.6516 34.2615C17.4809 34.3524 17.2842 34.4274 17.0615 34.4864C16.8387 34.5455 16.5941 34.5822 16.3277 34.5967C16.0613 34.6112 15.7834 34.5741 15.494 34.4855C15.373 34.4469 15.2926 34.3887 15.2528 34.3109C15.213 34.2331 15.1777 34.1759 15.1471 34.1393C15.0398 33.86 14.9463 33.4158 14.8664 32.8065C14.7866 32.1972 14.8193 31.4123 14.9644 30.4518C15.1126 29.4043 15.2895 28.5612 15.4952 27.9225C15.7009 27.2838 15.8206 26.9392 15.8543 26.8887C15.9247 26.7006 16.0716 26.604 16.2952 26.5988C16.5187 26.5936 16.6779 26.6023 16.7729 26.625C16.8203 26.6363 16.8797 26.6505 16.9509 26.6675C17.0221 26.6845 17.1205 26.7226 17.246 26.7818V26.7818ZM20.8155 33.2646C20.2647 33.3049 19.8208 33.2926 19.484 33.2278C19.1472 33.1629 18.8774 33.0691 18.6745 32.9465C18.4716 32.8239 18.3294 32.6683 18.2477 32.4797C18.166 32.291 18.1135 32.0807 18.0904 31.8487C18.075 31.3143 18.0829 30.8132 18.114 30.3451C18.1451 29.8772 18.2073 29.4248 18.3004 28.9879C18.3936 28.5511 18.5029 28.1112 18.6283 27.6683C18.7538 27.2253 18.899 26.741 19.0642 26.2153C19.1394 26.029 19.2942 25.9351 19.5286 25.9335C19.7629 25.932 19.9165 25.9457 19.9893 25.9748C20.0364 25.9873 20.1008 26.0019 20.1823 26.0187C20.2638 26.0354 20.3665 26.075 20.4905 26.1374C20.5889 26.1831 20.721 26.2869 20.8869 26.4488C21.0527 26.6107 21.0846 26.8303 20.9825 27.1076C20.9073 27.2938 20.8294 27.5236 20.7489 27.7968C20.6684 28.07 20.5919 28.364 20.5196 28.6786C20.4968 28.7904 20.473 28.897 20.4482 28.9985C20.4234 29.0999 20.3996 29.2065 20.3768 29.3183C20.4252 29.2231 20.5284 29.0369 20.6863 28.7597C20.8443 28.4825 21.0565 28.1681 21.3228 27.8166C21.5891 27.4651 21.8975 27.1001 22.2479 26.7218C22.5984 26.3435 22.9904 26.0057 23.4237 25.7083C23.4587 25.6587 23.5075 25.6225 23.5701 25.5999C23.6327 25.5772 23.6815 25.5411 23.7165 25.4914C23.8767 25.3965 24.0571 25.3192 24.2577 25.2595C24.4583 25.1999 24.6503 25.2386 24.8337 25.3756C25.1154 25.5584 25.246 25.7969 25.2254 26.0909C25.2049 26.385 25.159 26.6355 25.0878 26.8425C25.0516 26.9998 25.0111 27.1633 24.9662 27.3331C24.9212 27.5028 24.8719 27.6788 24.8182 27.8609C24.7861 28.0389 24.7496 28.2232 24.7087 28.4136C24.6678 28.6041 24.6313 28.7884 24.5992 28.9664C24.5272 29.6249 24.5437 30.2504 24.6487 30.8429C24.7538 31.4355 24.9917 31.8791 25.3624 32.174C25.4177 32.2279 25.4642 32.2943 25.502 32.3731C25.5398 32.4519 25.5089 32.5222 25.4093 32.5841C25.2881 32.6502 25.1411 32.7265 24.9681 32.8132C24.7951 32.8998 24.5965 32.9698 24.3723 33.0232C24.1481 33.0766 23.9026 33.1072 23.6359 33.1149C23.3692 33.1227 23.0924 33.0786 22.8054 32.9828C22.6854 32.9411 22.6066 32.8809 22.5688 32.8021C22.531 32.7234 22.4972 32.6653 22.4676 32.6279C22.3973 32.3834 22.3265 31.9939 22.2551 31.4594C22.1839 30.925 22.2023 30.2498 22.3105 29.434C22.3252 29.2808 22.3485 29.1152 22.3807 28.9371C22.4128 28.7591 22.4645 28.5666 22.5356 28.3596L22.5234 28.2974C22.4763 28.2849 22.444 28.2911 22.4265 28.3159C22.222 28.5267 22.0171 28.7645 21.812 29.0292C21.6069 29.2939 21.4358 29.5897 21.2988 29.9166C21.0784 30.3884 20.9584 30.9163 20.9389 31.5003C20.9445 31.7571 20.9569 31.9912 20.976 32.2025C20.9951 32.4138 21.0168 32.5816 21.0412 32.7059C21.0696 32.8509 21.0772 32.9462 21.0637 32.9917C21.0194 33.1076 20.969 33.1924 20.9125 33.2462C20.8734 33.2751 20.8411 33.2812 20.8155 33.2646V33.2646Z" fill="#F24141"/>
<path fill-rule="evenodd" clip-rule="evenodd" d="M29.3218 29.9914C28.5431 29.9828 27.9417 29.867 27.5177 29.6438C27.0936 29.4206 26.8135 29.1593 26.6772 28.8599C26.541 28.5605 26.5373 28.2567 26.6661 27.9486C26.795 27.6405 27.0214 27.3868 27.3452 27.1875C27.6289 27.0158 27.9255 26.8902 28.235 26.8106C28.5444 26.731 28.8372 26.686 29.1132 26.6757C29.3891 26.6653 29.6459 26.6739 29.8835 26.7015C30.1211 26.729 30.3099 26.7641 30.4499 26.8067C30.5432 26.8351 30.6116 26.8459 30.6549 26.8392C30.7016 26.8534 30.7358 26.8589 30.7574 26.8555C30.7608 26.8764 30.7733 26.8851 30.7949 26.8818C30.867 26.6358 30.9449 26.4263 31.0286 26.2533C31.1122 26.0802 31.1675 25.9383 31.1943 25.8274C31.4002 25.3045 31.6383 24.7393 31.9086 24.1318C32.1788 23.5244 32.3776 23.0614 32.5048 22.7428C32.535 22.6527 32.5684 22.5835 32.6052 22.5352L32.6603 22.4626C32.7475 22.1716 32.7913 21.8872 32.7917 21.6095C32.301 21.8771 31.8574 22.1962 31.4608 22.5668C31.0642 22.9374 30.7242 23.3153 30.441 23.7006C30.1577 24.0858 29.9341 24.4619 29.7701 24.8288C29.6061 25.1957 29.5331 25.5059 29.5511 25.7594C29.5558 25.9296 29.5089 26.0542 29.4104 26.1334C29.3119 26.2127 29.216 26.2381 29.1226 26.2097C28.9176 26.1771 28.7055 26.135 28.4863 26.0832C28.2671 26.0315 28.0792 25.9322 27.9227 25.7854C27.7662 25.6386 27.661 25.4305 27.6072 25.1611C27.5535 24.8917 27.5895 24.5231 27.7153 24.0553C27.9367 23.2097 28.3215 22.4137 28.8696 21.6675C29.3258 21.0421 29.9892 20.4276 30.8597 19.824C31.7303 19.2204 32.8778 18.7878 34.3023 18.5262C35.4699 18.3255 36.4333 18.343 37.1925 18.5788C37.9517 18.8145 38.5214 19.1862 38.9016 19.6937C39.2819 20.2013 39.4831 20.8057 39.5054 21.5071C39.5276 22.2085 39.3856 22.9244 39.0793 23.6549C38.8282 24.3128 38.4636 24.9562 37.9857 25.5849C37.5846 26.1377 37.0635 26.7036 36.4223 27.2827C35.781 27.8617 34.9956 28.3722 34.0662 28.814C34.6507 29.2795 35.2149 29.7214 35.7587 30.1397C36.3025 30.5581 36.8252 30.8782 37.3268 31.1001C37.9467 31.368 38.5814 31.484 39.231 31.4483C39.8805 31.4126 40.3988 31.3543 40.7858 31.2735C40.8942 31.2569 40.9951 31.2627 41.0884 31.2911C41.1818 31.3195 41.2075 31.4116 41.1655 31.5676C41.0652 31.7752 40.9264 32.0208 40.7492 32.3043C40.572 32.5878 40.3506 32.8728 40.085 33.1592C39.8194 33.4456 39.5147 33.6953 39.1708 33.9083C38.827 34.1213 38.4349 34.2403 37.9947 34.2652C37.4243 34.3101 36.8909 34.1678 36.3945 33.8383C35.8981 33.5087 35.4156 33.0917 34.947 32.587C34.4783 32.0824 34.034 31.5206 33.6139 30.9017C33.1938 30.2828 32.7874 29.7152 32.3947 29.1989C32.3711 29.3307 32.361 29.407 32.3643 29.4278C32.1476 30.4435 32.0687 31.2779 32.1278 31.9309C32.1868 32.5839 32.2611 33.053 32.3507 33.3383L32.3557 33.3695C32.3622 33.4112 32.3621 33.4807 32.3553 33.5778C32.3485 33.675 32.2958 33.7632 32.1973 33.8424C31.2226 34.4193 30.4421 34.7154 29.856 34.7307C29.2698 34.746 28.9514 34.3838 28.9009 33.644C28.8947 33.3246 28.9714 32.827 29.1309 32.1511C29.2903 31.4752 29.4982 30.7545 29.7545 29.9889C29.6461 30.0056 29.5019 30.0064 29.3218 29.9914V29.9914ZM33.6209 25.5827C33.4386 25.9738 33.2771 26.3563 33.1364 26.7303C32.9958 27.1043 32.8635 27.461 32.7395 27.8004C32.8112 27.8321 32.872 27.8655 32.922 27.9005C32.9719 27.9356 33.0344 27.9794 33.1094 28.0319C33.3347 27.9119 33.5746 27.7789 33.8291 27.633C34.0836 27.4872 34.3278 27.3108 34.5616 27.104C35.7686 26.1711 36.5621 25.291 36.9419 24.4638C37.3218 23.6366 37.498 22.9261 37.4705 22.3323C37.4846 21.8603 37.2768 21.4597 36.8471 21.1306C36.4174 20.8015 35.7271 20.7207 34.7764 20.8881C35.088 21.0325 35.2919 21.2681 35.3881 21.595C35.4843 21.922 35.3693 22.3881 35.0432 22.9935C35.0098 23.0627 34.9655 23.1336 34.9103 23.2062C34.8552 23.2787 34.8017 23.3617 34.7499 23.4551C34.7499 23.4551 34.7348 23.5001 34.7046 23.5902C34.6495 23.6627 34.5793 23.7803 34.494 23.9429C34.4087 24.1055 34.3088 24.281 34.1942 24.4695C34.0797 24.6579 33.9715 24.8507 33.8694 25.048C33.7674 25.2452 33.6846 25.4234 33.6209 25.5827V25.5827ZM30.0958 27.7261C29.6541 27.6017 29.2964 27.5872 29.0228 27.6827C28.7492 27.7781 28.6414 27.9388 28.6994 28.1648C28.7324 28.3733 28.8547 28.5147 29.0664 28.589C29.2781 28.6633 29.5173 28.7013 29.7841 28.703C29.8491 28.693 29.915 28.6882 29.9817 28.6886C30.0484 28.6891 30.1143 28.6843 30.1793 28.6743L30.4507 27.8637C30.4008 27.8287 30.3416 27.8057 30.2732 27.7949C30.2049 27.784 30.1457 27.7611 30.0958 27.7261V27.7261ZM43.3065 21.9862C43.4206 22.015 43.5196 22.0563 43.6037 22.11C43.6877 22.1637 43.7906 22.2364 43.9125 22.328C44.0639 22.4799 44.1872 22.6724 44.2824 22.9055C44.3775 23.1385 44.4461 23.3801 44.488 23.6301C44.53 23.8802 44.5489 24.1224 44.5447 24.3567C44.5405 24.5911 44.5257 24.7842 44.5003 24.936C44.6554 24.9387 44.82 24.9296 44.9943 24.9087C45.1468 24.8904 45.3246 24.8531 45.5276 24.7969C45.7307 24.7406 45.9456 24.6458 46.1723 24.5123C46.3196 24.4521 46.4272 24.4286 46.4952 24.4417C46.5439 24.4784 46.578 24.5752 46.5974 24.7323C46.6168 24.8894 46.5786 25.0269 46.4826 25.1447C46.2663 25.3619 46.0121 25.5413 45.7201 25.6826C45.4088 25.8474 45.0572 25.9534 44.6651 26.0004C44.5125 26.0187 44.4023 26.0213 44.3344 26.0082L44.2846 26.1417C44.268 26.1862 44.252 26.2359 44.2367 26.2909C44.2214 26.3459 44.2067 26.4061 44.1927 26.4716C44.1149 26.736 43.9801 27.0764 43.7884 27.4926C43.5967 27.9089 43.3431 28.3166 43.0277 28.7158C42.7123 29.1151 42.3292 29.4586 41.8784 29.7465C41.4277 30.0344 40.8934 30.1835 40.2757 30.1938C39.6989 30.178 39.2805 29.9677 39.0205 29.5631C38.7604 29.1585 38.622 28.6649 38.6053 28.0824C38.5885 27.4998 38.6665 26.8793 38.8393 26.2208C39.0121 25.5623 39.2539 24.97 39.5647 24.4438C39.6747 24.2606 39.7956 24.076 39.9273 23.8901C40.0591 23.7043 40.2018 23.5171 40.3553 23.3286C40.4731 23.2082 40.6283 23.078 40.821 22.9379C41.0137 22.7979 41.1954 22.7921 41.366 22.9204C41.4583 22.9519 41.5132 22.9931 41.5305 23.0442C41.5479 23.0952 41.5592 23.1417 41.5644 23.1836C41.7455 22.5029 42.1058 22.1089 42.6452 22.0017L42.8739 21.9743C43.0482 21.9534 43.1924 21.9574 43.3065 21.9862V21.9862ZM42.6601 26.1452C42.7177 26.0745 42.7452 26.0287 42.7426 26.0078C42.6041 25.9606 42.4739 25.8912 42.3521 25.7995C42.2328 25.7288 42.1157 25.6312 42.0008 25.5068C41.886 25.3824 41.7829 25.2194 41.6917 25.0178C41.6569 24.9156 41.6209 24.8031 41.5836 24.68C41.5462 24.5569 41.5185 24.4221 41.5004 24.2754C41.4708 24.2152 41.4701 24.1196 41.4981 23.9887C41.4852 23.884 41.4844 23.7884 41.4958 23.702C41.5072 23.6156 41.5174 23.5188 41.5262 23.4114C41.4956 23.5213 41.4144 23.6693 41.2826 23.8551C41.2328 23.9886 41.1708 24.113 41.0966 24.2282C41.0442 24.3408 40.9822 24.4651 40.9106 24.6013C40.839 24.7374 40.7783 24.8722 40.7285 25.0057C40.6621 25.1838 40.5995 25.3932 40.5409 25.6341C40.4823 25.875 40.4275 26.1472 40.3766 26.451C40.3092 26.7992 40.2859 27.1474 40.3068 27.4957C40.3278 27.8439 40.4947 28.0311 40.8074 28.0574C41.0087 28.0758 41.2187 27.9868 41.4376 27.7905C41.6565 27.5942 41.8415 27.3913 41.9924 27.1819C42.187 26.9672 42.4095 26.6217 42.6601 26.1452V26.1452ZM43.2003 24.6136C43.3061 24.2183 43.3153 23.8452 43.2277 23.4943C43.1401 23.1434 43.0104 22.9889 42.8388 23.0308C42.6671 23.0726 42.5682 23.212 42.5423 23.449C42.5163 23.6859 42.538 23.9065 42.6075 24.1108C42.65 24.2757 42.7662 24.4106 42.956 24.5154C43.0509 24.5678 43.1323 24.6005 43.2003 24.6136ZM47.3871 25.4982C47.3701 25.5425 47.3707 25.5956 47.3889 25.6573C47.407 25.7189 47.4076 25.772 47.3906 25.8163C47.3469 26.0123 47.3092 26.2608 47.2776 26.5616C47.246 26.8625 47.2373 27.1714 47.2517 27.4883C47.2661 27.8053 47.3071 28.114 47.3748 28.4143C47.4425 28.7147 47.5539 28.9624 47.7088 29.1575C47.7621 29.2365 47.7633 29.3426 47.7123 29.4757C47.6759 29.5435 47.6256 29.5862 47.5614 29.604C47.4972 29.6218 47.4433 29.6331 47.3997 29.638C47.3101 29.6268 47.1816 29.6146 47.0145 29.6014C46.8473 29.5882 46.6717 29.5494 46.4876 29.485C46.3035 29.4206 46.1158 29.3247 45.9245 29.1974C45.7331 29.0701 45.5794 28.8855 45.4632 28.6436C45.3736 28.4413 45.3023 28.205 45.2491 27.9349C45.1959 27.6647 45.164 27.3869 45.1532 27.1014C45.1424 26.8159 45.1492 26.5391 45.1736 26.2709C45.1979 26.0027 45.221 25.7718 45.2429 25.5782C45.2551 25.4919 45.2928 25.2435 45.3559 24.8329C45.4191 24.4224 45.506 23.9295 45.6165 23.3544C45.727 22.7793 45.8593 22.1539 46.0135 21.4784C46.1676 20.8029 46.3472 20.1563 46.5522 19.5388C46.7572 18.9213 46.9762 18.3765 47.209 17.9046C47.4418 17.4326 47.7011 17.0957 47.9871 16.8939C47.9847 16.8729 48.0247 16.8366 48.1071 16.7849C48.1919 16.7542 48.2876 16.7223 48.3942 16.6892C48.5008 16.656 48.6414 16.6297 48.8158 16.6103C48.8595 16.6054 48.92 16.6039 48.9976 16.6059C49.0751 16.6079 49.1696 16.6133 49.281 16.6221C49.3731 16.6543 49.5578 16.7239 49.8351 16.831C50.1125 16.9381 50.2922 17.1569 50.3745 17.4875C50.3841 17.5714 50.3502 17.6602 50.2726 17.7538C50.2532 17.7772 50.2289 17.8064 50.1999 17.8415C50.1708 17.8766 50.1368 17.9175 50.0981 17.9644C49.9963 18.0394 49.8278 18.3025 49.5925 18.7535C49.3573 19.2045 49.102 19.7692 48.8267 20.4476C48.5515 21.1261 48.2804 21.8891 48.0135 22.7365C47.7466 23.5839 47.5536 24.4496 47.4344 25.3336C47.4174 25.378 47.4096 25.4054 47.4108 25.4159C47.412 25.4264 47.4041 25.4538 47.3871 25.4982V25.4982ZM51.0077 25.146C50.9897 25.19 50.9891 25.243 51.0059 25.3051C51.0227 25.3671 51.0221 25.4202 51.0041 25.4642C50.956 25.6592 50.9129 25.9067 50.8745 26.2068C50.8362 26.5069 50.8207 26.8156 50.828 27.1327C50.8354 27.45 50.8695 27.7594 50.9305 28.0612C50.9915 28.363 51.0973 28.613 51.2479 28.8114C51.2994 28.8915 51.2982 28.9976 51.2443 29.1296C51.2064 29.1965 51.1552 29.2382 51.0906 29.2546C51.026 29.271 50.9719 29.2812 50.9281 29.2851C50.8388 29.2719 50.7107 29.257 50.5439 29.2402C50.377 29.2233 50.2023 29.1808 50.0197 29.1124C49.8371 29.0441 49.6515 28.9442 49.4631 28.8128C49.2746 28.6814 49.125 28.4935 49.0142 28.2492C48.9292 28.0449 48.8631 27.8072 48.816 27.5359C48.7688 27.2647 48.7431 26.9863 48.7386 26.7006C48.7342 26.4149 48.7472 26.1383 48.7775 25.8707C48.8078 25.6031 48.8361 25.3728 48.8623 25.1797C48.8763 25.0937 48.9195 24.8462 48.9918 24.4371C49.0641 24.028 49.1619 23.5371 49.2852 22.9645C49.4085 22.3919 49.5547 21.7696 49.7239 21.0976C49.893 20.4255 50.0869 19.783 50.3057 19.17C50.5243 18.5571 50.7553 18.0172 50.9986 17.5504C51.2418 17.0835 51.5087 16.7523 51.7991 16.5567C51.7971 16.5357 51.8379 16.5003 51.9214 16.4504C52.0069 16.4215 52.1033 16.3917 52.2106 16.3609C52.3179 16.33 52.459 16.3068 52.6339 16.2911C52.6776 16.2872 52.7382 16.287 52.8156 16.2907C52.8931 16.2944 52.9874 16.3018 53.0987 16.313C53.19 16.3472 53.3731 16.4208 53.648 16.5338C53.9229 16.6469 54.0978 16.8696 54.1726 17.2019C54.1804 17.2859 54.1445 17.3739 54.0648 17.4658C54.0449 17.4888 54.02 17.5175 53.9902 17.552C53.9603 17.5864 53.9255 17.6267 53.8857 17.6726C53.7822 17.7455 53.6079 18.0048 53.3627 18.4506C53.1175 18.8964 52.8497 19.4555 52.5594 20.1279C52.2691 20.8002 51.9811 21.5571 51.6954 22.3985C51.4097 23.24 51.1974 24.1014 51.0587 24.9826C51.0407 25.0266 51.0322 25.0538 51.0332 25.0643C51.0342 25.0748 51.0257 25.1021 51.0077 25.1461V25.146V25.146Z" fill="#0D4927"/>
<path fill-rule="evenodd" clip-rule="evenodd" d="M28.8199 12.3422C28.9872 12.3422 29.1529 12.3736 29.3074 12.4347C29.462 12.4958 29.6024 12.5853 29.7207 12.6982C29.839 12.811 29.9328 12.945 29.9968 13.0925C30.0609 13.2399 30.0938 13.398 30.0938 13.5576C30.0938 13.798 30.0191 14.033 29.8791 14.2328C29.7391 14.4327 29.5402 14.5885 29.3074 14.6805C29.0746 14.7724 28.8185 14.7965 28.5714 14.7496C28.3242 14.7027 28.0973 14.5869 27.9191 14.417C27.7409 14.247 27.6196 14.0304 27.5705 13.7947C27.5213 13.5589 27.5465 13.3145 27.643 13.0924C27.7394 12.8704 27.9027 12.6806 28.1122 12.547C28.3217 12.4135 28.568 12.3422 28.8199 12.3422V12.3422Z" fill="#F24141"/>
<path fill-rule="evenodd" clip-rule="evenodd" d="M28.3419 12.7231C28.3832 12.7067 28.4266 12.6969 28.4697 12.6942C28.5128 12.6914 28.5548 12.6958 28.5933 12.707C28.6318 12.7183 28.6659 12.7362 28.6939 12.7598C28.7218 12.7833 28.743 12.812 28.7561 12.8443C28.776 12.8928 28.7769 12.9476 28.7589 13.0016C28.7409 13.0557 28.7047 13.1065 28.655 13.1478C28.6052 13.1891 28.5441 13.219 28.4793 13.2337C28.4145 13.2483 28.349 13.2471 28.2911 13.2301C28.2332 13.2132 28.1854 13.1813 28.1539 13.1384C28.1223 13.0956 28.1083 13.0438 28.1138 12.9895C28.1192 12.9352 28.1438 12.8809 28.1844 12.8335C28.225 12.7861 28.2798 12.7476 28.3419 12.7231V12.7231Z" fill="white"/>
<path fill-rule="evenodd" clip-rule="evenodd" d="M25.1422 11.8213C25.309 11.8303 25.4724 11.8691 25.623 11.9354C25.7736 12.0017 25.9084 12.0942 26.0198 12.2076C26.1311 12.321 26.2168 12.4531 26.272 12.5963C26.3272 12.7396 26.3508 12.8912 26.3414 13.0425C26.3272 13.2704 26.2389 13.4891 26.0875 13.6709C25.9361 13.8528 25.7285 13.9897 25.4909 14.0643C25.2533 14.1388 24.9964 14.1478 24.7526 14.0899C24.5089 14.032 24.2893 13.91 24.1216 13.7392C23.9538 13.5684 23.8456 13.3566 23.8104 13.1304C23.7752 12.9043 23.8148 12.674 23.924 12.4687C24.0333 12.2634 24.2073 12.0923 24.4241 11.9771C24.641 11.8618 24.8908 11.8076 25.1422 11.8213V11.8213Z" fill="#F24141"/>
<path fill-rule="evenodd" clip-rule="evenodd" d="M24.5845 12.1855C24.6218 12.1622 24.6625 12.1445 24.7042 12.1335C24.7459 12.1225 24.7878 12.1183 24.8276 12.1212C24.8673 12.1241 24.9041 12.1341 24.9359 12.1506C24.9676 12.167 24.9937 12.1896 25.0126 12.2171C25.0411 12.2584 25.0523 12.3093 25.0448 12.3631C25.0373 12.417 25.0113 12.4715 24.9703 12.5198C24.9293 12.5681 24.8751 12.6079 24.8144 12.6343C24.7537 12.6606 24.6894 12.6723 24.6295 12.6679C24.5697 12.6635 24.5169 12.6432 24.478 12.6095C24.4391 12.5758 24.4158 12.5302 24.411 12.4786C24.4061 12.4269 24.4201 12.3715 24.4509 12.3194C24.4818 12.2672 24.5283 12.2206 24.5845 12.1855V12.1855Z" fill="white"/>
<path fill-rule="evenodd" clip-rule="evenodd" d="M28.7408 14.6697C29.0786 14.6697 29.4027 14.7978 29.6416 15.0257C29.8805 15.2536 30.0147 15.5628 30.0147 15.8851C30.0147 16.1255 29.94 16.3605 29.8 16.5603C29.66 16.7602 29.4611 16.916 29.2283 17.008C28.9955 17.1 28.7394 17.124 28.4923 17.0771C28.2451 17.0303 28.0181 16.9145 27.84 16.7445C27.6618 16.5745 27.5405 16.358 27.4914 16.1222C27.4422 15.8865 27.4674 15.6421 27.5638 15.42C27.6603 15.1979 27.8235 15.0081 28.033 14.8746C28.2425 14.741 28.4888 14.6697 28.7408 14.6697V14.6697Z" fill="#F24141"/>
<path fill-rule="evenodd" clip-rule="evenodd" d="M28.2628 15.0506C28.304 15.0342 28.3475 15.0244 28.3906 15.0217C28.4337 15.0189 28.4757 15.0233 28.5142 15.0346C28.5526 15.0458 28.5868 15.0637 28.6148 15.0873C28.6427 15.1108 28.6639 15.1395 28.677 15.1718C28.6968 15.2203 28.6978 15.2751 28.6798 15.3291C28.6618 15.3832 28.6256 15.4341 28.5758 15.4754C28.5261 15.5167 28.4649 15.5465 28.4002 15.5612C28.3354 15.5758 28.2699 15.5746 28.212 15.5576C28.154 15.5407 28.1063 15.5088 28.0747 15.466C28.0432 15.4231 28.0292 15.3713 28.0347 15.317C28.0401 15.2627 28.0647 15.2085 28.1053 15.161C28.1459 15.1136 28.2007 15.0752 28.2628 15.0506V15.0506Z" fill="white"/>
<path fill-rule="evenodd" clip-rule="evenodd" d="M27.0222 13.6358C27.1891 13.6448 27.3525 13.6836 27.5031 13.7499C27.6537 13.8162 27.7885 13.9087 27.8998 14.0221C28.0112 14.1355 28.0969 14.2676 28.1521 14.4108C28.2073 14.5541 28.2308 14.7057 28.2215 14.857C28.2073 15.0848 28.119 15.3035 27.9676 15.4854C27.8162 15.6673 27.6086 15.8042 27.371 15.8788C27.1334 15.9533 26.8764 15.9623 26.6327 15.9044C26.389 15.8465 26.1693 15.7245 26.0016 15.5537C25.8339 15.3829 25.7256 15.1711 25.6905 14.9449C25.6553 14.7188 25.6949 14.4885 25.8041 14.2832C25.9133 14.0779 26.0874 13.9068 26.3042 13.7916C26.521 13.6763 26.7709 13.6221 27.0222 13.6358V13.6358Z" fill="#F24141"/>
<path fill-rule="evenodd" clip-rule="evenodd" d="M26.4646 14C26.5399 13.9529 26.6273 13.9298 26.7076 13.9357C26.7879 13.9416 26.8545 13.9761 26.8927 14.0316C26.9212 14.0729 26.9324 14.1237 26.9249 14.1776C26.9173 14.2315 26.8914 14.286 26.8504 14.3343C26.8094 14.3826 26.7552 14.4224 26.6945 14.4488C26.6338 14.4751 26.5695 14.4868 26.5096 14.4824C26.4497 14.478 26.397 14.4577 26.3581 14.424C26.3192 14.3903 26.2959 14.3447 26.291 14.2931C26.2862 14.2414 26.3001 14.186 26.331 14.1339C26.3619 14.0817 26.4084 14.0351 26.4646 14V14Z" fill="white"/>
<path fill-rule="evenodd" clip-rule="evenodd" d="M33.1174 10.9146C33.4553 10.9146 33.7793 11.0426 34.0182 11.2705C34.2571 11.4985 34.3913 11.8076 34.3913 12.1299C34.3913 12.3703 34.3166 12.6053 34.1766 12.8052C34.0367 13.005 33.8377 13.1608 33.6049 13.2528C33.3721 13.3448 33.116 13.3689 32.8689 13.322C32.6218 13.2751 32.3948 13.1593 32.2166 12.9894C32.0385 12.8194 31.9172 12.6028 31.868 12.3671C31.8188 12.1313 31.8441 11.8869 31.9405 11.6648C32.0369 11.4428 32.2002 11.2529 32.4097 11.1194C32.6192 10.9858 32.8655 10.9146 33.1174 10.9146Z" fill="#F24141"/>
<path fill-rule="evenodd" clip-rule="evenodd" d="M32.6394 11.2954C32.6807 11.2791 32.7241 11.2693 32.7672 11.2665C32.8103 11.2638 32.8523 11.2681 32.8908 11.2794C32.9293 11.2907 32.9634 11.3086 32.9914 11.3321C33.0193 11.3556 33.0405 11.3844 33.0536 11.4166C33.0735 11.4652 33.0744 11.5199 33.0564 11.574C33.0384 11.628 33.0022 11.6789 32.9525 11.7202C32.9027 11.7615 32.8416 11.7914 32.7768 11.806C32.712 11.8207 32.6465 11.8194 32.5886 11.8025C32.5307 11.7855 32.4829 11.7536 32.4514 11.7108C32.4198 11.668 32.4059 11.6161 32.4113 11.5619C32.4167 11.5076 32.4413 11.4533 32.4819 11.4059C32.5225 11.3584 32.5773 11.32 32.6394 11.2954V11.2954Z" fill="white"/>
<path fill-rule="evenodd" clip-rule="evenodd" d="M31.8087 13.8841C31.9755 13.8932 32.1389 13.932 32.2895 13.9982C32.4401 14.0645 32.5749 14.157 32.6863 14.2704C32.7976 14.3838 32.8833 14.5159 32.9385 14.6592C32.9937 14.8024 33.0173 14.954 33.0079 15.1053C32.9938 15.3332 32.9054 15.5519 32.754 15.7338C32.6026 15.9156 32.395 16.0525 32.1574 16.1271C31.9198 16.2017 31.6629 16.2106 31.4191 16.1527C31.1754 16.0949 30.9558 15.9728 30.7881 15.8021C30.6204 15.6313 30.5121 15.4194 30.4769 15.1932C30.4417 14.9671 30.4813 14.7368 30.5905 14.5315C30.6998 14.3262 30.8738 14.1551 31.0906 14.0399C31.3075 13.9247 31.5573 13.8704 31.8087 13.8841V13.8841Z" fill="#F24141"/>
<path fill-rule="evenodd" clip-rule="evenodd" d="M31.251 14.2483C31.2883 14.225 31.329 14.2073 31.3707 14.1963C31.4124 14.1853 31.4543 14.1811 31.4941 14.184C31.5338 14.187 31.5706 14.1969 31.6024 14.2134C31.6341 14.2298 31.6602 14.2524 31.6791 14.2799C31.7076 14.3212 31.7188 14.3721 31.7113 14.426C31.7037 14.4798 31.6778 14.5344 31.6368 14.5826C31.5958 14.6309 31.5416 14.6707 31.4809 14.6971C31.4202 14.7234 31.3559 14.7352 31.296 14.7307C31.2362 14.7263 31.1834 14.706 31.1445 14.6723C31.1056 14.6386 31.0823 14.593 31.0775 14.5414C31.0727 14.4897 31.0866 14.4343 31.1175 14.3822C31.1483 14.33 31.1948 14.2834 31.251 14.2483V14.2483Z" fill="white"/>
<path fill-rule="evenodd" clip-rule="evenodd" d="M28.7443 8.39444C29.0239 8.39444 29.292 8.5004 29.4897 8.68901C29.6874 8.87763 29.7984 9.13344 29.7984 9.40018C29.7984 9.5991 29.7366 9.79355 29.6208 9.95894C29.505 10.1243 29.3403 10.2532 29.1477 10.3294C28.9551 10.4055 28.7431 10.4254 28.5386 10.3866C28.3341 10.3478 28.1463 10.252 27.9989 10.1113C27.8515 9.97069 27.7511 9.79149 27.7104 9.59639C27.6697 9.4013 27.6906 9.19908 27.7704 9.0153C27.8502 8.83153 27.9853 8.67445 28.1586 8.56394C28.332 8.45343 28.5358 8.39444 28.7443 8.39444Z" fill="#F24141"/>
<path fill-rule="evenodd" clip-rule="evenodd" d="M28.3488 8.7096C28.3829 8.69609 28.4188 8.68796 28.4545 8.68569C28.4902 8.68342 28.5249 8.68704 28.5568 8.69635C28.5886 8.70567 28.6169 8.72049 28.64 8.73997C28.6631 8.75945 28.6806 8.78321 28.6915 8.80989C28.7079 8.85008 28.7087 8.89539 28.6938 8.94011C28.6789 8.98483 28.649 9.02694 28.6078 9.06112C28.5666 9.0953 28.516 9.12001 28.4624 9.13213C28.4088 9.14424 28.3546 9.14323 28.3067 9.1292C28.2588 9.11517 28.2193 9.08877 28.1931 9.05333C28.167 9.01789 28.1555 8.975 28.16 8.93008C28.1645 8.88517 28.1848 8.84025 28.2184 8.801C28.252 8.76176 28.2974 8.72995 28.3488 8.7096V8.7096Z" fill="white"/>
<path fill-rule="evenodd" clip-rule="evenodd" d="M24.7618 8.53654C24.9087 8.54453 25.0526 8.57868 25.1851 8.63704C25.3177 8.6954 25.4364 8.77682 25.5345 8.87667C25.6325 8.97651 25.708 9.09282 25.7566 9.21895C25.8052 9.34508 25.8259 9.47856 25.8176 9.61178C25.8052 9.81241 25.7274 10.005 25.5941 10.1651C25.4608 10.3252 25.278 10.4457 25.0688 10.5114C24.8596 10.5771 24.6334 10.5849 24.4188 10.534C24.2042 10.483 24.0108 10.3756 23.8632 10.2252C23.7155 10.0749 23.6202 9.88831 23.5892 9.68919C23.5582 9.49007 23.5931 9.28731 23.6892 9.10656C23.7854 8.9258 23.9387 8.77517 24.1296 8.67371C24.3205 8.57225 24.5405 8.52451 24.7618 8.53654V8.53654Z" fill="#F24141"/>
<path fill-rule="evenodd" clip-rule="evenodd" d="M24.2708 8.85724C24.3371 8.81579 24.4141 8.79543 24.4848 8.80064C24.5555 8.80585 24.6141 8.8362 24.6477 8.88502C24.6728 8.92142 24.6827 8.96618 24.676 9.01362C24.6694 9.06107 24.6466 9.10907 24.6105 9.15157C24.5744 9.19406 24.5266 9.22913 24.4732 9.25235C24.4198 9.27556 24.3631 9.28588 24.3104 9.282C24.2577 9.27811 24.2113 9.2602 24.177 9.23052C24.1428 9.20084 24.1222 9.16074 24.118 9.11527C24.1137 9.0698 24.126 9.02102 24.1532 8.97509C24.1804 8.92916 24.2213 8.88815 24.2708 8.85724V8.85724Z" fill="white"/>
<path fill-rule="evenodd" clip-rule="evenodd" d="M20.8527 13.8689C21.1905 13.8689 21.5146 13.9969 21.7535 14.2248C21.9924 14.4528 22.1266 14.7619 22.1266 15.0842C22.1266 15.3246 22.0519 15.5596 21.9119 15.7595C21.7719 15.9594 21.573 16.1151 21.3402 16.2071C21.1074 16.2991 20.8513 16.3232 20.6042 16.2763C20.357 16.2294 20.1301 16.1136 19.9519 15.9437C19.7737 15.7737 19.6524 15.5571 19.6033 15.3214C19.5541 15.0856 19.5793 14.8412 19.6758 14.6191C19.7722 14.3971 19.9355 14.2072 20.1449 14.0737C20.3544 13.9401 20.6007 13.8689 20.8527 13.8689V13.8689Z" fill="#F24141"/>
<path fill-rule="evenodd" clip-rule="evenodd" d="M20.3747 14.2497C20.4159 14.2334 20.4593 14.2236 20.5025 14.2208C20.5456 14.2181 20.5876 14.2225 20.6261 14.2337C20.6645 14.245 20.6987 14.2629 20.7266 14.2864C20.7546 14.31 20.7757 14.3387 20.7889 14.3709C20.8087 14.4195 20.8097 14.4742 20.7917 14.5283C20.7737 14.5823 20.7375 14.6332 20.6877 14.6745C20.638 14.7158 20.5768 14.7457 20.5121 14.7603C20.4473 14.775 20.3818 14.7737 20.3239 14.7568C20.2659 14.7398 20.2182 14.7079 20.1866 14.6651C20.1551 14.6223 20.1411 14.5704 20.1466 14.5162C20.152 14.4619 20.1766 14.4076 20.2172 14.3602C20.2578 14.3127 20.3126 14.2743 20.3747 14.2497V14.2497Z" fill="white"/>
<path fill-rule="evenodd" clip-rule="evenodd" d="M17.2506 14.0112C17.5876 14.0296 17.9033 14.1685 18.1282 14.3975C18.3531 14.6265 18.4688 14.9269 18.4498 15.2324C18.4357 15.4603 18.3473 15.679 18.196 15.8609C18.0446 16.0428 17.8369 16.1796 17.5993 16.2542C17.3617 16.3288 17.1048 16.3377 16.8611 16.2799C16.6173 16.222 16.3977 16.1 16.23 15.9292C16.0623 15.7584 15.954 15.5465 15.9188 15.3204C15.8837 15.0942 15.9232 14.8639 16.0325 14.6586C16.1417 14.4533 16.3158 14.2822 16.5326 14.167C16.7494 14.0518 16.9993 13.9976 17.2506 14.0112V14.0112Z" fill="#F24141"/>
<path fill-rule="evenodd" clip-rule="evenodd" d="M16.693 14.3754C16.7303 14.3521 16.7709 14.3345 16.8126 14.3234C16.8543 14.3124 16.8963 14.3082 16.936 14.3112C16.9758 14.3141 17.0126 14.3241 17.0443 14.3405C17.0761 14.357 17.1022 14.3796 17.1211 14.407C17.1496 14.4484 17.1608 14.4992 17.1532 14.5531C17.1457 14.607 17.1198 14.6615 17.0788 14.7097C17.0378 14.758 16.9835 14.7978 16.9229 14.8242C16.8622 14.8506 16.7979 14.8623 16.738 14.8579C16.6781 14.8535 16.6254 14.8331 16.5865 14.7994C16.5476 14.7657 16.5242 14.7201 16.5194 14.6685C16.5146 14.6169 16.5285 14.5615 16.5594 14.5093C16.5903 14.4571 16.6368 14.4106 16.693 14.3754V14.3754Z" fill="white"/>
<path fill-rule="evenodd" clip-rule="evenodd" d="M25.7671 14.9412C25.9344 14.9412 26.1001 14.9726 26.2546 15.0337C26.4092 15.0948 26.5496 15.1843 26.6679 15.2972C26.7862 15.41 26.8801 15.544 26.9441 15.6915C27.0081 15.8389 27.0411 15.997 27.0411 16.1566C27.0411 16.397 26.9663 16.6319 26.8264 16.8318C26.6864 17.0317 26.4874 17.1875 26.2546 17.2794C26.0219 17.3714 25.7657 17.3955 25.5186 17.3486C25.2715 17.3017 25.0445 17.186 24.8664 17.016C24.6882 16.846 24.5669 16.6294 24.5177 16.3937C24.4686 16.1579 24.4938 15.9136 24.5902 15.6915C24.6866 15.4694 24.8499 15.2796 25.0594 15.146C25.2689 15.0125 25.5152 14.9412 25.7671 14.9412V14.9412Z" fill="#F24141"/>
<path fill-rule="evenodd" clip-rule="evenodd" d="M25.2892 15.322C25.3725 15.2891 25.4629 15.2833 25.5405 15.306C25.6182 15.3288 25.6768 15.3781 25.7034 15.4432C25.7232 15.4918 25.7242 15.5466 25.7062 15.6006C25.6882 15.6546 25.652 15.7055 25.6022 15.7468C25.5524 15.7881 25.4913 15.818 25.4265 15.8326C25.3618 15.8473 25.2963 15.8461 25.2383 15.8291C25.1804 15.8122 25.1326 15.7803 25.1011 15.7374C25.0695 15.6946 25.0556 15.6428 25.061 15.5885C25.0665 15.5342 25.0911 15.4799 25.1317 15.4325C25.1723 15.3851 25.2271 15.3466 25.2892 15.322V15.322Z" fill="white"/>
<path fill-rule="evenodd" clip-rule="evenodd" d="M16.155 9.672C16.2954 9.67964 16.4328 9.71226 16.5595 9.76803C16.6862 9.82379 16.7996 9.90159 16.8933 9.99699C16.987 10.0924 17.0591 10.2035 17.1055 10.324C17.1519 10.4446 17.1718 10.5721 17.1639 10.6994C17.152 10.8911 17.0776 11.0751 16.9503 11.2281C16.8229 11.3811 16.6482 11.4962 16.4483 11.559C16.2485 11.6217 16.0323 11.6292 15.8273 11.5806C15.6222 11.5319 15.4375 11.4292 15.2964 11.2855C15.1553 11.1418 15.0642 10.9636 15.0346 10.7733C15.005 10.5831 15.0383 10.3894 15.1302 10.2166C15.2221 10.0439 15.3685 9.90001 15.5509 9.80306C15.7333 9.70612 15.9436 9.66051 16.155 9.672V9.672Z" fill="#F24141"/>
<path fill-rule="evenodd" clip-rule="evenodd" d="M15.6858 9.97842C15.7492 9.93882 15.8228 9.91937 15.8903 9.92435C15.9579 9.92932 16.0139 9.95832 16.046 10.005C16.07 10.0397 16.0794 10.0825 16.0731 10.1278C16.0667 10.1732 16.0449 10.219 16.0104 10.2596C15.9759 10.3002 15.9303 10.3338 15.8793 10.3559C15.8282 10.3781 15.7741 10.388 15.7237 10.3843C15.6733 10.3806 15.629 10.3634 15.5963 10.3351C15.5635 10.3067 15.5439 10.2684 15.5398 10.225C15.5358 10.1815 15.5475 10.1349 15.5735 10.091C15.5995 10.0471 15.6386 10.008 15.6858 9.97842V9.97842Z" fill="white"/>
<path fill-rule="evenodd" clip-rule="evenodd" d="M14.2965 15.5493C14.58 15.5647 14.8456 15.6816 15.0348 15.8743C15.224 16.0669 15.3213 16.3196 15.3054 16.5766C15.2935 16.7683 15.2191 16.9523 15.0918 17.1053C14.9644 17.2584 14.7897 17.3735 14.5898 17.4362C14.3899 17.499 14.1738 17.5065 13.9687 17.4578C13.7637 17.4091 13.5789 17.3065 13.4378 17.1628C13.2968 17.0191 13.2057 16.8409 13.1761 16.6506C13.1465 16.4603 13.1798 16.2666 13.2717 16.0939C13.3636 15.9212 13.51 15.7773 13.6924 15.6803C13.8748 15.5834 14.0851 15.5378 14.2965 15.5493V15.5493Z" fill="#F24141"/>
<path fill-rule="evenodd" clip-rule="evenodd" d="M13.8273 15.8557C13.8587 15.8361 13.8929 15.8212 13.928 15.8119C13.9631 15.8027 13.9984 15.7991 14.0318 15.8016C14.0653 15.8041 14.0962 15.8125 14.1229 15.8263C14.1497 15.8401 14.1716 15.8591 14.1875 15.8822C14.2115 15.917 14.2209 15.9598 14.2146 16.0051C14.2082 16.0504 14.1864 16.0963 14.1519 16.1369C14.1174 16.1775 14.0718 16.211 14.0207 16.2332C13.9697 16.2554 13.9156 16.2652 13.8652 16.2615C13.8148 16.2578 13.7705 16.2407 13.7378 16.2124C13.705 16.184 13.6854 16.1457 13.6813 16.1022C13.6773 16.0588 13.689 16.0122 13.715 15.9683C13.741 15.9244 13.7801 15.8852 13.8273 15.8557V15.8557Z" fill="white"/>
<path fill-rule="evenodd" clip-rule="evenodd" d="M13.3001 24.9107C13.218 24.9596 13.175 24.1061 13.918 22.9102C14.661 21.7144 14.0629 23.2555 13.9229 23.9751C13.783 24.6948 13.3344 24.9843 13.3001 24.9107Z" fill="white"/>
<path fill-rule="evenodd" clip-rule="evenodd" d="M39.1717 26.8146C39.0812 26.7585 38.984 25.9448 39.6227 24.9219C40.2614 23.899 39.7748 25.1573 39.6492 25.7493C39.5235 26.3413 39.262 26.8706 39.1717 26.8146V26.8146Z" fill="white"/>
<path fill-rule="evenodd" clip-rule="evenodd" d="M16.4551 24.6509C16.5922 24.9034 16.8148 24.5742 17.0086 24.2631C17.0902 24.132 17.2559 23.92 17.2196 23.844C17.1834 23.768 16.318 24.3984 16.4551 24.6509V24.6509Z" fill="white"/>
<path fill-rule="evenodd" clip-rule="evenodd" d="M24.2275 25.7292C23.409 25.9372 22.947 26.4767 22.9536 26.571C22.9602 26.6653 23.4354 26.3142 24.2671 25.9242" fill="white"/>
<path fill-rule="evenodd" clip-rule="evenodd" d="M29.9179 21.2124C30.8773 20.3142 31.8332 19.7905 32.0661 19.7248C32.2991 19.659 31.809 20.0511 31.2731 20.5828C30.7371 21.1143 30.1552 21.7855 29.8528 22.2002C29.5504 22.6149 29.5274 22.7733 28.9531 22.2756" fill="white"/>
<path fill-rule="evenodd" clip-rule="evenodd" d="M1.25272 25.5623C1.95445 24.8071 2.69692 24.3669 2.88508 24.3116C3.07322 24.2563 2.70705 24.586 2.31855 25.0329C1.93003 25.4799 1.5192 26.0441 1.31338 26.3928C1.10755 26.7414 1.10674 26.8745 0.565819 26.4561" fill="white"/>
<path fill-rule="evenodd" clip-rule="evenodd" d="M48.6563 17.1913C48.3003 17.18 47.7261 18.164 47.3298 19.067C46.9336 19.97 46.7154 20.7919 46.6599 21.1539C46.6044 21.5158 46.7116 21.4178 47.0465 20.6279C47.3815 19.838 47.9443 18.3563 48.8745 17.3949" fill="white"/>
<path fill-rule="evenodd" clip-rule="evenodd" d="M52.4313 16.9951C52.0752 16.9838 51.501 17.9678 51.1048 18.8708C50.7086 19.7737 50.4903 20.5957 50.4348 20.9576C50.3793 21.3196 50.4865 21.2215 50.8215 20.4317C51.1565 19.6418 51.7192 18.1601 52.6495 17.1987" fill="white"/>
<path fill-rule="evenodd" clip-rule="evenodd" d="M1.99014 42.0234C3.37518 44.3381 7.79923 50.2136 13.5153 53.0167C16.2871 54.3759 20.7825 55.7851 25.504 56.0074C32.652 56.3438 39.966 54.1157 45.4457 49.5181C48.712 46.7776 51.2067 43.2759 52.6697 40.2724C55.9077 33.625 55.7202 29.2325 55.7202 29.2325C54.05 30.9754 53.0223 31.2886 51.2492 32.1786C50.6302 35.2596 49.9484 41.2076 42.6461 47.3538C35.3437 53.5 27.4731 53.023 22.9476 52.5588C18.422 52.0946 14.4236 49.9838 11.2726 47.5671C8.12706 45.1547 6.05935 42.4666 5.36525 41.3517C5.32277 41.3619 5.28023 41.372 5.23767 41.3822C4.97113 41.4583 4.7081 41.5188 4.43744 41.5653C3.58296 41.7532 2.7396 41.914 1.99014 42.0234V42.0234Z" fill="#0D4927"/>
</g>
<defs>
<clipPath id="clip0_143_12">
<rect width="56" height="56" fill="white"/>
</clipPath>
</defs>
</svg>
